<svg width="512" height="512" viewBox="0 0 512 512" fill="none" xmlns="http://www.w3.org/2000/svg">
  <rect width="512" height="512" fill="#F6F2EE"/>
  <path fill-rule="evenodd" clip-rule="evenodd" d="M144 64H368C412.183 64 448 99.8172 448 144V368C448 412.183 412.183 448 368 448H144C99.8172 448 64 412.183 64 368V144C64 99.8172 99.8172 64 144 64ZM352 160H208C181.49 160 160 181.49 160 208V224H400V208C400 181.49 378.51 160 352 160ZM112 256H448V288H112V256ZM160 320V336C160 362.51 181.49 384 208 384H352C378.51 384 400 362.51 400 336V320H160Z" fill="black"/>
</svg>
